# xmcd CD database file
#
# Track frame offsets:
#	150
#	900
#	1650
#	2400
#	3150
#	3900
#	4650
#	5400
#	6150
#	6900
#	7650
#	8400
#	9150
#	234695
#
# Disc length: 4440 seconds
#
# Revision: 1
# Processed by: cddbd v1.5.1PL0 Copyright (c) Steve Scherf et al.
# Submitted via: CDex 1.51
#
DISCID=5c11560e
DTITLE=陶吉吉(DAVID TAO) - 太平盛世(THE GREAT LEAP 2005)
DYEAR=2005
DGENRE=
TTITLE0=鬼(GHOST OVERTURE)
TTITLE1=鬼(GHOST)
TTITLE2=CATHERINE
TTITLE3=就是愛妳(LOVE CAN)
TTITLE4=孫子兵法(THE ART OF WAR)
TTITLE5=愛我還是他(WHO DO YOU LOVE?)
TTITLE6=SUSAN說(SUSAN SAID)
TTITLE7=無緣(FATED)
TTITLE8=SULA與LAMPA的寓言(SULA and LAMPA)
TTITLE9=2NIGHT-藏愛(2NIGHT)
TTITLE10=她的歌(SONG FOR ANITA)
TTITLE11=愛是個什麼東西(WHAT'S LOVE?)
TTITLE12=禱告良辰歌(SWEET HOUR OF PRAYER)
TTITLE13=Data Track
EXTD=YEAR: 2005
EXTT0=
EXTT1=
EXTT2=
EXTT3=
EXTT4=
EXTT5=
EXTT6=
EXTT7=
EXTT8=
EXTT9=
EXTT10=
EXTT11=
EXTT12=
EXTT13=
PLAYORDER=
